<svg id="hourglassSvg" fill="none" height="100%" width="100%" viewBox="488 218 280 340" xmlns:xlink="http://www.w3.org/1999/xlink" xmlns="http://www.w3.org/2000/svg"><defs><clipPath id="i0"><rect height="980" width="1400" y="0" x="0" /></clipPath></defs><g id="i13"><g transform="translate(628,388)"><g transform="rotate(0)"><animateTransform repeatCount="indefinite" type="rotate" attributeName="transform" dur="1.917s" begin="0s" calcMode="spline" values="0; 0; 180; 180" keyTimes="0; 0.739131; 0.869565; 1" keySplines="0 0 1 1; 0 0 1 1; 0 0 1 1" fill="freeze" /><g transform="scale(1,1) translate(-719,-437)"><g clip-path="url(#i0)"><g><g transform="translate(718.431,432.721)"><g transform="scale(1,1)"><animateTransform repeatCount="indefinite" type="scale" attributeName="transform" dur="1.917s" begin="0s" calcMode="spline" values="1 1; 0.889 0.638; 0.844 0.493; 0.654 0.335; 0.398 0.113; 0.308 -0.001; 0.308 -0.001" keyTimes="0; 0.217391; 0.304348; 0.391305; 0.521739; 0.586957; 1" keySplines="0 0 1 1; 0 0 1 1; 0 0 1 1; 0 0 1 1; 0 0 1 1; 0 0 1 1" fill="freeze" /><g transform="translate(-61.419,-69.91)"><g transform="matrix(1,0,0,1,61.418,35.91)"><path fill="currentColor" d="M-54.95,-35.66C-54.95,-35.66,-2.777,-35.66,-2.777,-35.66C-2.777,-35.66,-2.777,-35.659,-2.777,-35.659C-2.777,-35.659,2.537,-35.659,2.537,-35.659C2.537,-35.659,2.537,-35.66,2.537,-35.66C2.537,-35.66,54.71,-35.66,54.71,-35.66C61.168,-34.608,55.942,-10.345,41.714,8.278C29.239,24.607,8.564,35.66,0.017,35.588C0.017,35.588,0.017,35.595,0.017,35.595C0.01,35.595,0.003,35.59,-0.005,35.589C-0.042,35.588,-0.083,35.594,-0.12,35.593C-0.12,35.593,-0.119,35.556,-0.119,35.556C-0.12,35.555,-0.12,35.555,-0.121,35.555C-0.121,35.555,-0.12,35.593,-0.12,35.593C-0.316,35.598,-0.519,35.584,-0.722,35.574C-0.722,35.574,-0.722,35.595,-0.722,35.595C-0.75,35.593,-0.778,35.578,-0.806,35.571C-9.813,34.999,-30.459,22.7,-42.953,5.945C-56.386,-12.072,-61.168,-34.647,-54.95,-35.66Z" /></g></g></g></g></g><g visibility="hidden"><animate repeatCount="indefinite" begin="0s" calcMode="discrete" dur="1.917s" values="hidden; visible; hidden; hidden" keyTimes="0; 0.043007; 0.304053; 1" attributeName="visibility" /><g transform="translate(717.751,446.954)"><animateTransform repeatCount="indefinite" type="translate" attributeName="transform" dur="1.917s" begin="0s" calcMode="spline" values="717.751 446.954; 717.751 446.954; 717.751 529.954; 717.751 529.954" keyTimes="0; 0.043478; 0.130435; 1" keySplines="0 0 1 1; 0 0 1 1; 0 0 1 1" fill="freeze" /><g transform="scale(1,1) translate(-3.594,-3.594)"><g transform="matrix(1,0,0,1,3.594,3.594)"><path fill="currentColor" d="M0,-3.345C-1.857,-3.345,-3.345,-1.839,-3.345,0C-3.345,1.84,-1.857,3.345,0,3.345C1.839,3.345,3.345,1.84,3.345,0C3.345,-1.839,1.839,-3.345,0,-3.345Z" /></g></g></g></g><g visibility="hidden"><animate repeatCount="indefinite" begin="0s" calcMode="discrete" dur="1.917s" values="hidden; visible; hidden; hidden" keyTimes="0; 0.109019; 0.370064; 1" attributeName="visibility" /><g transform="translate(717.751,446.954)"><animateTransform repeatCount="indefinite" type="translate" attributeName="transform" dur="1.917s" begin="0s" calcMode="spline" values="717.751 446.954; 717.751 446.954; 717.751 529.954; 717.751 529.954" keyTimes="0; 0.108695; 0.195652; 1" keySplines="0 0 1 1; 0 0 1 1; 0 0 1 1" fill="freeze" /><g transform="scale(1,1) translate(-3.594,-3.594)"><g transform="matrix(1,0,0,1,3.594,3.594)"><path fill="currentColor" d="M0,-3.345C-1.857,-3.345,-3.345,-1.839,-3.345,0C-3.345,1.84,-1.857,3.345,0,3.345C1.839,3.345,3.345,1.84,3.345,0C3.345,-1.839,1.839,-3.345,0,-3.345Z" /></g></g></g></g><g visibility="hidden"><animate repeatCount="indefinite" begin="0s" calcMode="discrete" dur="1.917s" values="hidden; visible; hidden; hidden" keyTimes="0; 0.152026; 0.413072; 1" attributeName="visibility" /><g transform="translate(717.751,446.954)"><animateTransform repeatCount="indefinite" type="translate" attributeName="transform" dur="1.917s" begin="0s" calcMode="spline" values="717.751 446.954; 717.751 446.954; 717.751 529.954; 717.751 529.954" keyTimes="0; 0.152174; 0.239131; 1" keySplines="0 0 1 1; 0 0 1 1; 0 0 1 1" fill="freeze" /><g transform="scale(1,1) translate(-3.594,-3.594)"><g transform="matrix(1,0,0,1,3.594,3.594)"><path fill="currentColor" d="M0,-3.345C-1.857,-3.345,-3.345,-1.839,-3.345,0C-3.345,1.84,-1.857,3.345,0,3.345C1.839,3.345,3.345,1.84,3.345,0C3.345,-1.839,1.839,-3.345,0,-3.345Z" /></g></g></g></g><g visibility="hidden"><animate repeatCount="indefinite" begin="0s" calcMode="discrete" dur="1.917s" values="hidden; visible; hidden; hidden" keyTimes="0; 0.217038; 0.478083; 1" attributeName="visibility" /><g transform="translate(717.751,446.954)"><animateTransform repeatCount="indefinite" type="translate" attributeName="transform" dur="1.917s" begin="0s" calcMode="spline" values="717.751 446.954; 717.751 446.954; 717.751 529.954; 717.751 529.954" keyTimes="0; 0.217391; 0.304348; 1" keySplines="0 0 1 1; 0 0 1 1; 0 0 1 1" fill="freeze" /><g transform="scale(1,1) translate(-3.594,-3.594)"><g transform="matrix(1,0,0,1,3.594,3.594)"><path fill="currentColor" d="M0,-3.345C-1.857,-3.345,-3.345,-1.839,-3.345,0C-3.345,1.84,-1.857,3.345,0,3.345C1.839,3.345,3.345,1.84,3.345,0C3.345,-1.839,1.839,-3.345,0,-3.345Z" /></g></g></g></g><g visibility="hidden"><animate repeatCount="indefinite" begin="0s" calcMode="discrete" dur="1.917s" values="hidden; visible; hidden; hidden" keyTimes="0; 0.239042; 0.500087; 1" attributeName="visibility" /><g transform="translate(717.751,446.954)"><animateTransform repeatCount="indefinite" type="translate" attributeName="transform" dur="1.917s" begin="0s" calcMode="spline" values="717.751 446.954; 717.751 446.954; 717.751 529.954; 717.751 529.954" keyTimes="0; 0.23913; 0.326087; 1" keySplines="0 0 1 1; 0 0 1 1; 0 0 1 1" fill="freeze" /><g transform="scale(1,1) translate(-3.594,-3.594)"><g transform="matrix(1,0,0,1,3.594,3.594)"><path fill="currentColor" d="M0,-3.345C-1.857,-3.345,-3.345,-1.839,-3.345,0C-3.345,1.84,-1.857,3.345,0,3.345C1.839,3.345,3.345,1.84,3.345,0C3.345,-1.839,1.839,-3.345,0,-3.345Z" /></g></g></g></g><g visibility="hidden"><animate repeatCount="indefinite" begin="0s" calcMode="discrete" dur="1.917s" values="hidden; visible; hidden; hidden" keyTimes="0; 0.261045; 0.522091; 1" attributeName="visibility" /><g transform="translate(717.751,446.954)"><animateTransform repeatCount="indefinite" type="translate" attributeName="transform" dur="1.917s" begin="0s" calcMode="spline" values="717.751 446.954; 717.751 446.954; 717.751 529.954; 717.751 529.954" keyTimes="0; 0.26087; 0.347826; 1" keySplines="0 0 1 1; 0 0 1 1; 0 0 1 1" fill="freeze" /><g transform="scale(1,1) translate(-3.594,-3.594)"><g transform="matrix(1,0,0,1,3.594,3.594)"><path fill="currentColor" d="M0,-3.345C-1.857,-3.345,-3.345,-1.839,-3.345,0C-3.345,1.84,-1.857,3.345,0,3.345C1.839,3.345,3.345,1.84,3.345,0C3.345,-1.839,1.839,-3.345,0,-3.345Z" /></g></g></g></g><g><g transform="translate(719.431,537.721)"><animateTransform repeatCount="indefinite" type="translate" attributeName="transform" dur="1.917s" begin="0s" calcMode="spline" values="719.431 537.721; 719.431 537.721; 719.431 537; 719.431 537; 719.431 537.722; 719.431 513.721; 719.431 513.721" keyTimes="0; 0.543478; 0.695652; 0.782609; 0.804348; 0.891305; 1" keySplines="0 0 1 1; 0 0 1 1; 0 0 1 1; 0 0 1 1; 0 0 1 1; 0 0 1 1" fill="freeze" /><g transform="rotate(180)"><g transform="scale(1,0.004)"><animateTransform repeatCount="indefinite" type="scale" attributeName="transform" dur="1.917s" begin="0s" calcMode="spline" values="1 0.004; 1 0.072; 1 0.653; 1.02 1.033; 1.02 1.033" keyTimes="0; 0.086957; 0.195652; 0.521739; 1" keySplines="0 0 1 1; 0 0 1 1; 0 0 1 1; 0 0 1 1" fill="freeze" /><g transform="translate(-61.419,-0.91)"><g transform="matrix(1,0,0,1,61.418,35.91)"><path fill="currentColor" d="M-54.95,-35.66C-54.95,-35.66,-2.777,-35.66,-2.777,-35.66C-2.777,-35.66,-2.777,-35.659,-2.777,-35.659C-2.777,-35.659,2.537,-35.659,2.537,-35.659C2.537,-35.659,2.537,-35.66,2.537,-35.66C2.537,-35.66,54.71,-35.66,54.71,-35.66C61.168,-34.608,55.942,-10.345,41.714,8.278C29.239,24.607,8.564,35.66,0.017,35.588C0.017,35.588,0.017,35.595,0.017,35.595C0.01,35.595,0.003,35.59,-0.005,35.589C-0.042,35.588,-0.083,35.594,-0.12,35.593C-0.12,35.593,-0.119,35.556,-0.119,35.556C-0.12,35.555,-0.12,35.555,-0.121,35.555C-0.121,35.555,-0.12,35.593,-0.12,35.593C-0.316,35.598,-0.519,35.584,-0.722,35.574C-0.722,35.574,-0.722,35.595,-0.722,35.595C-0.75,35.593,-0.778,35.578,-0.806,35.571C-9.813,34.999,-30.459,22.7,-42.953,5.945C-56.386,-12.072,-61.168,-34.647,-54.95,-35.66Z" /></g></g></g></g></g></g><g visibility="visible"><animate repeatCount="indefinite" begin="0s" calcMode="discrete" dur="1.917s" values="visible; hidden; hidden" keyTimes="0; 0.696121; 1" attributeName="visibility" /><g transform="translate(717.751,446.954)"><animateTransform repeatCount="indefinite" type="translate" attributeName="transform" dur="1.917s" begin="0s" calcMode="spline" values="717.751 446.954; 717.751 529.954; 717.751 529.954" keyTimes="0; 0.086957; 1" keySplines="0 0 1 1; 0 0 1 1" fill="freeze" /><g transform="scale(1,1) translate(-3.594,-3.594)"><g transform="matrix(1,0,0,1,3.594,3.594)"><path fill="currentColor" d="M0,-3.345C-1.857,-3.345,-3.345,-1.839,-3.345,0C-3.345,1.84,-1.857,3.345,0,3.345C1.839,3.345,3.345,1.84,3.345,0C3.345,-1.839,1.839,-3.345,0,-3.345Z" /></g></g></g></g><g transform="matrix(1,0,0,1,637.416,328.604)"><g transform="matrix(1,0,0,1,81.85,109.045)"><path fill="currentColor" fill-rule="evenodd" d="M81.6,99.744C81.6,99.744,58.939,99.744,58.939,99.744C58.939,99.744,58.939,49.873,58.939,49.873C58.939,26.078,25.999,7.989,9.067,-0.001C25.999,-7.991,58.939,-26.05,58.939,-49.873C58.939,-49.873,58.939,-99.717,58.939,-99.717C58.939,-99.717,81.6,-99.717,81.6,-99.717C81.6,-99.717,81.6,-108.795,81.6,-108.795C81.6,-108.795,-81.6,-108.795,-81.6,-108.795C-81.6,-108.795,-81.6,-99.717,-81.6,-99.717C-81.6,-99.717,-58.933,-99.717,-58.933,-99.717C-58.933,-99.717,-58.933,-49.873,-58.933,-49.873C-58.933,-26.05,-25.999,-7.991,-9.061,-0.001C-25.999,7.989,-58.933,26.078,-58.933,49.873C-58.933,49.873,-58.933,99.744,-58.933,99.744C-58.933,99.744,-81.6,99.744,-81.6,99.744C-81.6,99.744,-81.6,108.795,-81.6,108.795C-81.6,108.795,81.6,108.795,81.6,108.795C81.6,108.795,81.6,99.744,81.6,99.744ZM-49.855,-49.873C-49.855,-49.873,-49.855,-99.717,-49.855,-99.717C-49.855,-99.717,49.861,-99.717,49.861,-99.717C49.861,-99.717,49.861,-49.873,49.861,-49.873C49.861,-29.972,15.776,-11.068,-0.011,-4.54C-15.793,-11.068,-49.855,-29.994,-49.855,-49.873ZM49.861,99.744C49.861,99.744,-49.855,99.744,-49.855,99.744C-49.855,99.744,-49.855,49.873,-49.855,49.873C-49.855,29.994,-15.793,11.066,-0.011,4.538C15.799,11.089,49.861,29.994,49.861,49.873C49.861,49.873,49.861,99.744,49.861,99.744Z" /></g></g></g></g></g></g></g></svg>